<svg version="1.1" id="Слой_1" xmlns="http://www.w3.org/2000/svg" x="0" y="0" viewBox="0 0 96 84" style="enable-background:new 0 0 96 84" xml:space="preserve"><style>.st0{fill:#eb0029}</style><path class="st0" d="M83.7 31.4H46V6.8c0-1.8-1.4-3.3-3.1-3.3H33c-1.5-1.5-3.5-2.4-5.7-2.4-2.3 0-4.3.9-5.8 2.4h-9.9C9.9 3.5 8.5 5 8.5 6.8v45c0 1.8 1.4 3.3 3.1 3.3h19.2v24.6c0 1.8 1.4 3.3 3.2 3.3h49.7c1.7 0 3.2-1.5 3.2-3.3V34.8c0-1.9-1.4-3.4-3.2-3.4zm-31.7 4h13.8v25.5l-6.2-2.4c-.4-.2-.9-.2-1.3 0L52 60.9V35.4zM27.2 5.1c2.5 0 4.5 2.1 4.7 4.7h-9.3c.1-2.6 2.1-4.7 4.6-4.7zM12.3 7.5h6.9c-.2.7-.3 1.5-.4 2.3h-3.7c-1 0-1.9.9-1.9 2s.8 2 1.9 2h24.2c1 0 1.9-.9 1.9-2s-.8-2-1.9-2h-3.7c0-.8-.1-1.6-.4-2.3h6.9v43.6H12.3V7.5zM83.1 79H34.6V55.1h8.3c1.7 0 3.1-1.5 3.1-3.3V35.4h2.2v28.3c0 .7.3 1.3.8 1.6.3.2.7.4 1.1.4.2 0 .4 0 .7-.1l8.1-3.2 8.1 3.2c.6.2 1.2.1 1.7-.2.5-.4.8-1 .8-1.6V35.4h13.6V79z"/><path class="st0" d="m33.5 26.8-9.2 9.7-3.4-3.6c-.7-.8-1.9-.8-2.7 0-.7.8-.7 2 0 2.8l4.8 5c.4.4.8.6 1.3.6s1-.2 1.3-.6l10.5-11.1c.7-.8.7-2 0-2.8-.6-.8-1.8-.8-2.6 0z"/></svg>