<svg width="34" height="34" fill="none" xmlns="http://www.w3.org/2000/svg"><path d="M31.629 24.82a.944.944 0 0 0-1.133-.662l-2.352.633a13.439 13.439 0 0 0 2.267-6.375 13.676 13.676 0 0 0-4.562-11.475.944.944 0 0 0-1.294.085.945.945 0 0 0 .085 1.332 11.76 11.76 0 0 1 3.929 9.879 11.512 11.512 0 0 1-1.889 5.42l-.236-2.37a.942.942 0 0 0-1.014-1.06.945.945 0 0 0-.828 1.212l.473 6.082 5.902-1.568a.944.944 0 0 0 .652-1.133Z" fill="#EB0029"/><path d="M4.07 16.13c.125.081.267.133.415.152a.945.945 0 0 0 1.058-.803 11.532 11.532 0 0 1 12.108-9.964L15.535 6.96a.945.945 0 0 0 .444 1.69.944.944 0 0 0 .605-.15l5.034-3.457L17.31.717a.945.945 0 1 0-1.313 1.304l1.606 1.605a13.411 13.411 0 0 0-13.93 11.598.945.945 0 0 0 .396.907Z" fill="#EB0029"/><path d="M20.523 28.266c-1.475.471-3.03.635-4.57.482a11.616 11.616 0 0 1-9.04-5.95l2.352.878a.944.944 0 0 0 .652-1.738l-4.335-1.605-1.388-.501-1.049 5.997a.944.944 0 0 0 .747 1.067h.16a.945.945 0 0 0 .945-.765l.396-2.266a13.506 13.506 0 0 0 10.39 6.743 13.136 13.136 0 0 0 5.316-.567.944.944 0 0 0-.566-1.794l-.01.019Z" fill="#EB0029"/><path d="M20.777 12.277h-7.555a.944.944 0 0 0-.945.945v7.555a.944.944 0 0 0 .945.945h7.555a.945.945 0 0 0 .945-.945v-7.555a.944.944 0 0 0-.945-.945Zm-.944 7.556h-5.667v-5.667h5.667v5.667Z" fill="#EB0029"/></svg>