<svg width="34" height="34" viewBox="0 0 34 34" fill="none" xmlns="http://www.w3.org/2000/svg">
<path d="M6.79937 25.5801C6.17602 25.5801 5.66602 26.1348 5.66602 26.8129C5.66602 27.4909 6.17602 28.0456 6.79937 28.0456C7.42273 28.0456 7.93273 27.4909 7.93273 26.8129C7.93273 26.1348 7.42273 25.5801 6.79937 25.5801Z" fill="#EB0029"/>
<path d="M27.1998 25.5801C26.5764 25.5801 26.0664 26.1348 26.0664 26.8129C26.0664 27.4909 26.5764 28.0456 27.1998 28.0456C27.8231 28.0456 28.3331 27.4909 28.3331 26.8129C28.3331 26.1348 27.8231 25.5801 27.1998 25.5801Z" fill="#EB0029"/>
<path d="M33.2634 19.9713L31.0534 18.9851L29.6367 12.8214C29.4667 11.9584 28.7867 11.4037 27.9934 11.4037H22.6667V7.70543C22.6667 7.02739 22.1567 6.47266 21.5334 6.47266H1.13336C0.51 6.47266 0 7.02739 0 7.70543V18.8002V26.1967C0 26.8747 0.51 27.4294 1.13336 27.4294H3.44848C3.72041 29.1727 5.12304 30.5113 6.8 30.5113C8.47696 30.5113 9.87959 29.1727 10.1515 27.4294H23.8485C24.1204 29.1727 25.523 30.5113 27.2 30.5113C28.877 30.5113 30.2796 29.1727 30.5515 27.4294H32.8666C33.49 27.4294 34 26.8747 34 26.1967V21.1424C34 20.5876 33.7166 20.1562 33.2634 19.9713ZM1.13336 7.70543H21.5334V12.02V12.6364C21.5334 15.7183 19.2667 18.1837 16.4334 18.1837H1.13336V7.70543ZM6.8 29.2785C5.55336 29.2785 4.53336 28.169 4.53336 26.813C4.53336 25.457 5.55336 24.3475 6.8 24.3475C8.04664 24.3475 9.06664 25.457 9.06664 26.813C9.06664 28.169 8.04664 29.2785 6.8 29.2785ZM27.2 29.2785C25.9534 29.2785 24.9334 28.169 24.9334 26.813C24.9334 25.457 25.9534 24.3475 27.2 24.3475C28.4466 24.3475 29.4666 25.457 29.4666 26.813C29.4666 28.169 28.4466 29.2785 27.2 29.2785ZM32.8666 26.1967H30.5515C30.3602 24.9702 29.6091 23.9447 28.5963 23.4442C28.5738 23.433 28.5515 23.4215 28.5287 23.4108C28.5145 23.4042 28.5 23.3982 28.4857 23.3918C28.449 23.3752 28.412 23.359 28.3747 23.344C28.3646 23.3399 28.3543 23.3362 28.3442 23.3322C28.3027 23.3159 28.2608 23.3003 28.2185 23.2857C28.2093 23.2825 28.2001 23.2795 28.1909 23.2765C28.1479 23.2621 28.1045 23.2485 28.0606 23.236C28.0509 23.2333 28.0412 23.2305 28.0315 23.2279C27.9884 23.216 27.9451 23.2051 27.9013 23.195C27.8903 23.1925 27.8793 23.1899 27.8683 23.1875C27.8261 23.1783 27.7835 23.17 27.7407 23.1625C27.728 23.1603 27.7154 23.1579 27.7026 23.1558C27.6614 23.1491 27.6198 23.1435 27.578 23.1385C27.5638 23.1367 27.5498 23.1347 27.5356 23.1331C27.4938 23.1286 27.4517 23.1254 27.4094 23.1226C27.3955 23.1216 27.3818 23.1202 27.3677 23.1195C27.3122 23.1165 27.2562 23.1148 27.1998 23.1148C27.1434 23.1148 27.0874 23.1165 27.0319 23.1195C27.0179 23.1202 27.0041 23.1216 26.9902 23.1226C26.9479 23.1254 26.9058 23.1286 26.864 23.1331C26.8498 23.1346 26.8358 23.1367 26.8216 23.1385C26.7798 23.1435 26.7382 23.1491 26.697 23.1558C26.6842 23.1579 26.6716 23.1603 26.6589 23.1625C26.616 23.17 26.5735 23.1783 26.5313 23.1874C26.5202 23.1899 26.5092 23.1924 26.4982 23.1949C26.4545 23.205 26.4112 23.216 26.3681 23.2278C26.3584 23.2305 26.3487 23.2332 26.339 23.236C26.2951 23.2485 26.2517 23.262 26.2087 23.2765C26.1995 23.2795 26.1904 23.2825 26.1812 23.2857C26.1388 23.3003 26.097 23.3159 26.0554 23.3322C26.0453 23.3362 26.0352 23.3399 26.0251 23.344C25.9876 23.3591 25.9506 23.3753 25.9138 23.3919C25.8996 23.3983 25.8852 23.4043 25.871 23.4109C25.8482 23.4216 25.8259 23.4332 25.8033 23.4444C24.7906 23.9449 24.0395 24.9703 23.8483 26.1967H10.1515C9.96021 24.9702 9.20909 23.9448 8.19626 23.4443C8.17381 23.4331 8.1515 23.4216 8.12872 23.4109C8.11451 23.4043 8.10004 23.3983 8.08569 23.3918C8.04897 23.3753 8.01205 23.3591 7.97466 23.344C7.96457 23.34 7.95434 23.3362 7.94418 23.3322C7.90268 23.3159 7.86077 23.3003 7.81847 23.2857C7.80931 23.2826 7.80014 23.2796 7.79091 23.2766C7.74788 23.2622 7.70445 23.2487 7.66063 23.2361C7.65093 23.2334 7.64123 23.2306 7.63147 23.2279C7.58844 23.2161 7.54508 23.2051 7.50138 23.1951C7.49036 23.1926 7.4794 23.19 7.46831 23.1876C7.42608 23.1783 7.38351 23.1701 7.34075 23.1626C7.32806 23.1603 7.31545 23.158 7.3027 23.1559C7.26146 23.1491 7.21982 23.1436 7.17805 23.1385C7.16391 23.1368 7.14983 23.1348 7.13562 23.1332C7.09385 23.1287 7.05175 23.1255 7.00951 23.1226C6.99557 23.1217 6.98182 23.1203 6.96781 23.1195C6.91223 23.1166 6.85625 23.1148 6.79987 23.1148C6.74349 23.1148 6.68751 23.1166 6.63193 23.1195C6.61798 23.1203 6.60417 23.1217 6.59022 23.1226C6.54799 23.1255 6.50589 23.1287 6.46412 23.1332C6.44991 23.1347 6.43583 23.1368 6.42168 23.1385C6.37991 23.1436 6.33828 23.1492 6.29704 23.1559C6.28429 23.158 6.27167 23.1603 6.25892 23.1626C6.21609 23.1701 6.17359 23.1783 6.13136 23.1875C6.12027 23.19 6.10931 23.1925 6.09829 23.195C6.05459 23.2051 6.01123 23.216 5.9682 23.2279C5.9585 23.2305 5.94874 23.2332 5.93904 23.236C5.89521 23.2486 5.85179 23.2621 5.80875 23.2766C5.79959 23.2796 5.79043 23.2826 5.78126 23.2857C5.73889 23.3003 5.69706 23.3159 5.65549 23.3322C5.64539 23.3362 5.63523 23.34 5.62514 23.344C5.58769 23.3592 5.5507 23.3754 5.51391 23.392C5.49963 23.3984 5.48522 23.4044 5.47108 23.411C5.4483 23.4217 5.42592 23.4332 5.40341 23.4444C4.39072 23.945 3.63959 24.9704 3.44834 26.1968H1.13336V19.4165H16.4334C19.89 19.4165 22.6667 16.3963 22.6667 12.6364H27.9934C28.2767 12.6364 28.5034 12.8829 28.56 13.1295L29.8509 18.8002H25.67C25.2734 18.8002 24.9334 18.4303 24.9334 17.9989V12.5485C24.9334 12.1787 24.7067 11.9321 24.3667 11.9321C24.0267 11.9321 23.8001 12.1787 23.8001 12.5485V17.9989C23.8001 19.1084 24.6501 20.0329 25.6701 20.0329H30.3734L32.8668 21.0808L32.8666 26.1967Z" fill="#EB0029"/>
</svg>
