<svg width="76" height="66" fill="none" xmlns="http://www.w3.org/2000/svg"><path d="M65.118 16.04 33.679.848a1.56 1.56 0 0 0-1.358 0L.882 16.039a1.561 1.561 0 0 0 .634 2.966v43.38c0 1.61 1.31 2.919 2.919 2.919h57.13c1.61 0 2.919-1.31 2.919-2.919V19.003a1.558 1.558 0 0 0 .634-2.964ZM4.5 62.5l-.5-45 29-14 28.5 14v45h-57Z" fill="#EB0029"/><path d="M47 36H19.068C17.196 36 16 36.85 16 38.721V57c0 1.872 1.196 3 3.068 3H47c1.872 0 3-1.128 3-3V38.5c0-1.872-1.128-2.5-3-2.5Zm-16.876 2.45h5.754v10.715h-5.754V38.449Zm17.082 18.604c0 .15-.122.272-.273.272H19.069a.273.273 0 0 1-.272-.272V38.721c0-.15.122-.272.272-.272h7.933v12.277c0 .862.7 1.56 1.562 1.56h8.876c.862 0 1.56-.698 1.56-1.56V38.449h7.934c.15 0 .273.122.273.273v18.332Z" fill="#EB0029"/><path d="M25 32h16c1.45 0 2-.55 2-2V19c0-1.45-.55-2-2-2H25c-1.45 0-2 .55-2 2v11c0 1.45.55 2 2 2Zm.381-12.303h6.058v4.843a1.561 1.561 0 1 0 3.122 0v-4.843h6.057v9.687H25.381v-9.687Z" fill="#EB0029"/></svg>