<svg width="34" height="34" fill="none" xmlns="http://www.w3.org/2000/svg"><path d="M34 14.733V2.267A2.273 2.273 0 0 0 31.733 0H19.267A2.273 2.273 0 0 0 17 2.267V10.2H2.267A2.273 2.273 0 0 0 0 12.467v19.266A2.273 2.273 0 0 0 2.267 34H13.6c.675 0 1.284-.3 1.7-.772A2.262 2.262 0 0 0 17 34h14.733A2.273 2.273 0 0 0 34 31.733v-13.6c0-.675-.3-1.284-.772-1.7a2.263 2.263 0 0 0 .772-1.7Zm-6.8-13.6V6.8l-1.36-1.02c-.113-.057-.227-.113-.34-.113-.113 0-.227.056-.34.113L23.8 6.8V1.133h3.4Zm-15.867 10.2V17l-1.36-1.02c-.113-.057-.226-.113-.34-.113-.113 0-.226.056-.34.113L7.933 17v-5.667h3.4ZM13.6 32.867H2.267c-.624 0-1.134-.51-1.134-1.134V12.467c0-.624.51-1.134 1.134-1.134H6.8v6.8c0 .227.113.397.34.454.17.113.397.056.567-.057l1.926-1.417 1.927 1.474c.113.056.227.113.34.113.113 0 .17 0 .227-.057.226-.113.34-.283.34-.51v-6.8H17v3.4c0 .048.002.096.005.143l.001.016c.01.145.034.286.07.423.05.193.121.38.207.552H17c-1.247 0-2.267 1.02-2.267 2.323v13.543c0 .624-.51 1.134-1.133 1.134Zm19.267-14.734v13.6c0 .624-.51 1.134-1.134 1.134H17c-.623 0-1.133-.51-1.133-1.134V18.19c0-.68.51-1.19 1.19-1.19h4.476v6.8c0 .227.114.397.34.453.17.114.397.057.567-.056l1.927-1.417 1.926 1.473c.114.057.227.114.34.114.114 0 .17 0 .227-.057.227-.113.34-.283.34-.51V17h4.533c.624 0 1.134.51 1.134 1.133ZM22.667 17h3.4v5.667l-1.36-1.02c-.114-.057-.227-.114-.34-.114-.114 0-.227.057-.34.114l-1.36 1.02V17Zm3.966-1.133H19.267c-.624 0-1.134-.51-1.134-1.134V2.267c0-.624.51-1.134 1.134-1.134h3.4v6.8c0 .227.113.397.34.454.17.113.396.056.566-.057L25.5 6.913l1.927 1.474c.113.056.226.113.34.113.113 0 .17 0 .226-.057.227-.113.34-.283.34-.51v-6.8h3.4c.624 0 1.134.51 1.134 1.134v12.466c0 .624-.51 1.134-1.134 1.134h-5.1Z" fill="#EB0029"/></svg>