<svg width="75" height="66" fill="none" xmlns="http://www.w3.org/2000/svg"><path d="M14.998 53.05c-1.375 0-2.5 1.238-2.5 2.75 0 1.513 1.125 2.75 2.5 2.75s2.5-1.237 2.5-2.75c0-1.512-1.125-2.75-2.5-2.75Z" fill="#EB0029"/><path d="M60 53.05c-1.375 0-2.5 1.238-2.5 2.75 0 1.513 1.125 2.75 2.5 2.75s2.5-1.237 2.5-2.75c0-1.512-1.125-2.75-2.5-2.75Z" fill="#EB0029"/><path d="M73.375 40.54 68.5 38.342l-3.125-13.747C65 22.669 63.5 21.432 61.75 21.432H50v-8.249c0-1.512-1.125-2.75-2.5-2.75h-45c-1.375 0-2.5 1.238-2.5 2.75V54.426c0 1.512 1.125 2.75 2.5 2.75h5.107c.6 3.887 3.694 6.873 7.393 6.873 3.7 0 6.793-2.986 7.393-6.874h30.214c.6 3.889 3.694 6.874 7.393 6.874 3.7 0 6.793-2.986 7.393-6.874H72.5c1.375 0 2.5-1.237 2.5-2.75V43.154c0-1.237-.625-2.2-1.625-2.612ZM2.5 13.184h45v10.998c0 6.874-5 12.373-11.25 12.373H2.5v-23.37ZM15 61.3c-2.75 0-5-2.475-5-5.5 0-3.024 2.25-5.498 5-5.498s5 2.474 5 5.499c0 3.024-2.25 5.498-5 5.498Zm45 0c-2.75 0-5-2.475-5-5.5 0-3.024 2.25-5.498 5-5.498s5 2.474 5 5.499c0 3.024-2.25 5.498-5 5.498Zm12.5-6.874h-5.107c-.422-2.736-2.079-5.023-4.313-6.14l-.149-.074-.095-.042a6.81 6.81 0 0 0-.245-.107l-.067-.026a6.822 6.822 0 0 0-.277-.104l-.061-.02a6.796 6.796 0 0 0-.288-.09l-.064-.019a6.813 6.813 0 0 0-.287-.073l-.073-.017a6.7 6.7 0 0 0-.281-.056l-.084-.014a6.537 6.537 0 0 0-.275-.04l-.094-.011a7.078 7.078 0 0 0-.278-.024l-.092-.007a6.888 6.888 0 0 0-.74 0l-.093.007a7.078 7.078 0 0 0-.278.024l-.094.012a6.884 6.884 0 0 0-.275.039l-.084.014a7.066 7.066 0 0 0-.281.056l-.073.017a6.735 6.735 0 0 0-.639.182l-.06.02a6.882 6.882 0 0 0-.278.104l-.067.026a6.52 6.52 0 0 0-.245.107l-.095.043c-.05.023-.1.05-.149.074-2.234 1.117-3.89 3.404-4.313 6.139H22.393c-.422-2.736-2.079-5.023-4.313-6.139l-.149-.074-.095-.043a6.635 6.635 0 0 0-.245-.107l-.067-.026a6.822 6.822 0 0 0-.277-.104l-.061-.02a6.796 6.796 0 0 0-.288-.09l-.064-.019a6.73 6.73 0 0 0-.287-.073l-.073-.017a6.727 6.727 0 0 0-.281-.055l-.084-.015a6.71 6.71 0 0 0-.275-.039l-.094-.012a6.886 6.886 0 0 0-.278-.023c-.03-.002-.06-.006-.092-.007a6.787 6.787 0 0 0-.74 0c-.032.001-.062.005-.093.007a6.875 6.875 0 0 0-.278.023l-.094.012a7.077 7.077 0 0 0-.274.039c-.029.004-.056.01-.085.015a6.926 6.926 0 0 0-.281.055l-.073.017a6.928 6.928 0 0 0-.287.073l-.064.018a6.7 6.7 0 0 0-.288.09l-.06.021a6.83 6.83 0 0 0-.278.104l-.067.026c-.082.034-.164.07-.245.107l-.094.043-.15.074c-2.234 1.117-3.89 3.404-4.312 6.14H2.5V39.303h33.75c7.625 0 13.75-6.737 13.75-15.123h11.75c.625 0 1.125.55 1.25 1.1l2.848 12.648h-9.223c-.875 0-1.625-.825-1.625-1.787V23.985c0-.825-.5-1.375-1.25-1.375s-1.25.55-1.25 1.375v12.157c0 2.474 1.875 4.536 4.125 4.536H67l5.5 2.338v11.41Z" fill="#EB0029"/></svg>