<svg version="1.1" id="Слой_1" xmlns="http://www.w3.org/2000/svg" xmlns:xlink="http://www.w3.org/1999/xlink" x="0" y="0" viewBox="0 0 96 84" style="enable-background:new 0 0 96 84" xml:space="preserve"><style>.st1{fill:#fff}</style><defs><path id="SVGID_1_" d="M3.5 1h89v82h-89z"/></defs><clipPath id="SVGID_00000076604318737522756830000007148640596364057000_"><use xlink:href="#SVGID_1_" style="overflow:visible"/></clipPath><g style="clip-path:url(#SVGID_00000076604318737522756830000007148640596364057000_)"><path class="st1" d="M19.3 51h57.4c3.2 0 5.9-2.4 5.9-5.4V10.8c0-3-2.6-5.4-5.9-5.4H19.3c-3.2 0-5.9 2.4-5.9 5.4v34.8c0 3 2.6 5.4 5.9 5.4zM41 9.2h14v22.2H41V9.2zm-23.4 1.6c0-.9.8-1.5 1.7-1.5h17.5v24.2c0 1.1.9 1.9 2.1 1.9h18.3c1.2 0 2.1-.9 2.1-1.9V9.2h17.5c.9 0 1.7.7 1.7 1.5v34.8c0 .9-.8 1.5-1.7 1.5H19.3c-.9 0-1.7-.7-1.7-1.5V10.8z"/><path class="st1" d="M90.4 54H5.6c-1.2 0-2.1.9-2.1 1.9v11.5c0 1.1.9 1.9 2.1 1.9H7v7.3c0 1.1.9 1.9 2.1 1.9h16.2c1.2 0 2.1-.9 2.1-1.9v-7.3h41.3v7.3c0 1.1.9 1.9 2.1 1.9H87c1.2 0 2.1-.9 2.1-1.9v-7.3h1.4c1.2 0 2.1-.9 2.1-1.9V55.9c-.1-1-1-1.9-2.2-1.9zM23.1 74.8h-12v-5.2h12v5.2zm61.7 0h-12v-5.2h12v5.2zm3.5-9.2H50.8v-7.7h37.5v7.7zM7.7 57.9h38.9v7.7H7.7v-7.7z"/></g></svg>