<svg xmlns="http://www.w3.org/2000/svg" viewBox="0 0 96 84" style="enable-background:new 0 0 96 84" xml:space="preserve"><path d="M83.5 32.4h-2.9L54.2 19.3c.9-1.3 1.4-3 1.4-4.7 0-3.9-2.5-7.1-5.9-8V1.9c0-1.1-.8-1.9-1.8-1.9s-1.8.9-1.8 1.9v6.4c0 1.1.8 1.9 1.8 1.9 2.3 0 4.1 2 4.1 4.4 0 1.2-.4 2.2-1.1 3l-2.5-1.3c-.3-.1-.5-.2-.8-.2-.3 0-.6 0-.8.2l-2 1c-.6-.8-.9-1.7-.9-2.8 0-1.1-.8-1.9-1.8-1.9s-1.8.9-1.8 1.9c0 1.6.4 3.1 1.2 4.4L14.4 32.4h-2.1c-1.9 0-3.4 1.6-3.4 3.6v43.4c0 2 1.5 3.6 3.4 3.6h71.2c1.9 0 3.4-1.6 3.4-3.6V36c0-2-1.5-3.6-3.4-3.6zM44.1 21.9c1.1.6 2.4 1 3.7 1 1.2 0 2.3-.3 3.3-.8L72 32.4H22.9l21.2-10.5zm2 14.4v42.9H27.9V36.3h18.2zm3.6 0h18.1v42.9H49.7V36.3zm-37.2 0h11.8v42.9H12.5V36.3zm70.8 42.9H71.5V36.3h11.8v42.9z" style="fill:#eb0029"/></svg>