<svg width="75" height="66" fill="none" xmlns="http://www.w3.org/2000/svg"><path d="M66 28.6V4.4C66 1.98 64.02 0 61.6 0H37.4C34.98 0 33 1.98 33 4.4v15.4H4.4c-2.42 0-4.4 1.98-4.4 4.4v37.4C0 64.02 1.98 66 4.4 66h22a4.392 4.392 0 0 0 3.3-1.5A4.392 4.392 0 0 0 33 66h28.6c2.42 0 4.4-1.98 4.4-4.4V35.2c0-1.31-.582-2.492-1.5-3.3a4.392 4.392 0 0 0 1.5-3.3ZM52.8 2.2v11l-2.64-1.98c-.22-.11-.44-.22-.66-.22-.22 0-.44.11-.66.22L46.2 13.2v-11h6.6ZM22 22v11l-2.64-1.98c-.22-.11-.44-.22-.66-.22-.22 0-.44.11-.66.22L15.4 33V22H22Zm4.4 41.8h-22c-1.21 0-2.2-.99-2.2-2.2V24.2c0-1.21.99-2.2 2.2-2.2h8.8v13.2c0 .44.22.77.66.88.33.22.77.11 1.1-.11l3.74-2.75 3.74 2.86c.22.11.44.22.66.22.22 0 .33 0 .44-.11.44-.22.66-.55.66-.99V22H33v6.6c0 .093.004.185.01.277l.002.03c.02.282.066.557.136.821.097.376.235.738.402 1.072H33c-2.42 0-4.4 1.98-4.4 4.51V61.6c0 1.21-.99 2.2-2.2 2.2Zm37.4-28.6v26.4c0 1.21-.99 2.2-2.2 2.2H33c-1.21 0-2.2-.99-2.2-2.2V35.31c0-1.32.99-2.31 2.31-2.31H41.8v13.2c0 .44.22.77.66.88.33.22.77.11 1.1-.11l3.74-2.75 3.74 2.86c.22.11.44.22.66.22.22 0 .33 0 .44-.11.44-.22.66-.55.66-.99V33h8.8c1.21 0 2.2.99 2.2 2.2ZM44 33h6.6v11l-2.64-1.98c-.22-.11-.44-.22-.66-.22-.22 0-.44.11-.66.22L44 44V33Zm7.7-2.2H37.4c-1.21 0-2.2-.99-2.2-2.2V4.4c0-1.21.99-2.2 2.2-2.2H44v13.2c0 .44.22.77.66.88.33.22.77.11 1.1-.11l3.74-2.75 3.74 2.86c.22.11.44.22.66.22.22 0 .33 0 .44-.11.44-.22.66-.55.66-.99V2.2h6.6c1.21 0 2.2.99 2.2 2.2v24.2c0 1.21-.99 2.2-2.2 2.2h-9.9Z" fill="#EB0029"/></svg>