<svg width="34" height="34" fill="none" xmlns="http://www.w3.org/2000/svg"><path d="M33.545 8.263 17.35.438a.804.804 0 0 0-.7 0L.455 8.263A.804.804 0 0 0 .78 9.79v22.348c0 .83.675 1.504 1.504 1.504h29.43c.83 0 1.504-.675 1.504-1.504V9.79a.803.803 0 0 0 .326-1.527ZM2.39 32.033V9.114L17 2.054l14.61 7.06v22.92H2.39Z" /><path d="M24.178 18.2H9.823a1.75 1.75 0 0 0-1.749 1.748v9.444a1.75 1.75 0 0 0 1.749 1.748h14.355a1.75 1.75 0 0 0 1.748-1.748v-9.444a1.75 1.75 0 0 0-1.748-1.749Zm-8.66 1.608h2.965v5.52h-2.965v-5.52Zm8.8 9.584a.14.14 0 0 1-.14.14H9.823a.14.14 0 0 1-.14-.14v-9.444a.14.14 0 0 1 .14-.14h4.087v6.324c0 .444.36.804.804.804h4.573c.444 0 .804-.36.804-.804v-6.324h4.087a.14.14 0 0 1 .14.14v9.444Z" /><path d="M12.82 16.746h8.359c.747 0 1.354-.608 1.354-1.354V9.893c0-.746-.608-1.354-1.354-1.354H12.82c-.747 0-1.354.608-1.354 1.354v5.499c0 .746.607 1.354 1.354 1.354Zm.255-6.599h3.12v2.495a.804.804 0 1 0 1.609 0v-2.495h3.12v4.99h-7.849v-4.99Z" /></svg>