<svg width="75" height="66" fill="none" xmlns="http://www.w3.org/2000/svg"><g clip-path="url(#a)" fill="#EB0029"><path d="M24.454 45.148H8.236c-.695 0-1.158.464-1.158 1.159v13.9c0 .696.463 1.159 1.158 1.159h16.218c.695 0 1.158-.463 1.158-1.158V46.307c0-.695-.463-1.159-1.158-1.159ZM23.296 59.05H9.395V47.465h13.9V59.05Z"/><path d="M12.873 52.1h6.95c.696 0 1.159-.464 1.159-1.159 0-.694-.463-1.158-1.158-1.158h-6.95c-.696 0-1.16.464-1.16 1.158 0 .695.464 1.159 1.16 1.159Z"/><path d="M12.873 56.733h4.634c.695 0 1.158-.464 1.158-1.159 0-.695-.463-1.158-1.158-1.158h-4.634c-.695 0-1.158.463-1.158 1.158 0 .695.463 1.159 1.158 1.159Z"/><path d="m64.768 1.593-.463-.464c-1.506-1.505-4.055-1.505-5.677 0l-9.391 9.268H34.88V9.238c0-.695-.463-1.158-1.158-1.158H22.139c-.696 0-1.159.463-1.159 1.158v1.159H5.805c-3.128 0-5.676 2.548-5.676 5.792v44.019C.129 63.452 2.677 66 5.805 66H49.94c3.244 0 5.792-2.548 5.792-5.792V17.176l5.483-5.52a1.174 1.174 0 0 0 .544-.547l3.009-3.03c1.737-1.853 1.737-4.749 0-6.486ZM53.763 15.957l-7.53 7.53-4.865 1.39 1.622-4.982 7.645-7.53c.036-.035.068-.072.099-.11l5.026-4.958 3.332 3.331-5.329 5.329Zm-30.466-5.56h9.267v12.626l-3.938-3.128c-.348-.347-.927-.347-1.39 0l-3.939 3.128V10.397Zm30.119 9.151v40.66c0 1.97-1.506 3.475-3.476 3.475H5.805c-1.853 0-3.36-1.506-3.36-3.475v-44.02c0-1.969 1.507-3.474 3.36-3.474H20.98v10.54c0 .812.463 1.623 1.274 1.97.695.348 1.622.348 2.317-.232l3.36-2.664 3.359 2.665c.463.347.927.463 1.39.463.348 0 .695 0 .927-.232.81-.347 1.274-1.158 1.274-1.97v-10.54H46.89l-5.753 5.676c-.115.116-.231.347-.231.463l-2.433 7.414c-.116.347-.116.81.232 1.158.034.034.068.065.102.094.314.272.638.358 1.056.254l7.298-2.085c.116-.116.348-.232.464-.348l5.791-5.792Zm9.846-13.09-2.549 2.548-3.32-3.32 2.857-2.819c.695-.695 1.738-.695 2.433 0l.579.463c.927.811.927 2.201 0 3.128Z"/></g><defs><clipPath id="a"><path fill="#fff" d="M0 0h66v66H0z"/></clipPath></defs></svg>