<svg version="1.1" id="Слой_1" xmlns="http://www.w3.org/2000/svg" x="0" y="0" viewBox="0 0 96 84" style="enable-background:new 0 0 96 84" xml:space="preserve"><style>.st0{fill:#eb0029}</style><path class="st0" d="M42.5 57.4c.3 1.2 1.5 2.1 2.8 2.1.2 0 .5 0 .7-.1l40.5-9.2c1.6-.4 2.5-1.8 2.2-3.3L81.3 18c-.3-1.2-1.5-2-2.9-2-.2 0-.5 0-.7.1l-40.5 9.2c-.8.2-1.4.6-1.8 1.2-.4.6-.5 1.4-.3 2.1l7.4 28.8zm19.3-34 4.3 16.7-7.2 1.6L54.6 25l7.2-1.6zm-11 2.5 4.8 18.5c.2.8 1 1.4 1.9 1.4.2 0 .3 0 .5-.1l11-2.5c1-.2 1.7-1.2 1.4-2.2l-4.8-18.5 12.2-2.8 7 27.1-38.7 8.8-7-27.1 11.7-2.6z"/><path class="st0" d="M89.4 58c-.3-1-1.3-1.6-2.3-1.3l-39.4 8.9C46 62 42.3 59.7 38 59.7h-.6L23.6 5.8c-.3-1-1.3-1.6-2.3-1.3L8 7.4c-1 .2-1.7 1.2-1.4 2.2.3 1 1.3 1.6 2.3 1.3l11.4-2.6 13.4 52.2c-1.9.8-3.6 2.2-4.7 3.9-1.5 2.3-1.9 4.9-1.3 7.5 1.2 4.5 5.4 7.6 10.3 7.6.8 0 1.7-.1 2.5-.3 5-1.1 8.4-5.5 8.1-10.2L88 60.2c1.1-.3 1.7-1.2 1.4-2.2zM39.6 75.8c-.5.1-1 .2-1.6.2-3.1 0-5.8-2-6.5-4.8-.4-1.6-.1-3.3.8-4.8.9-1.4 2.4-2.5 4.2-2.9.5-.1 1.1-.2 1.6-.2 3.1 0 5.8 2 6.5 4.8.8 3.5-1.4 6.9-5 7.7z"/></svg>