<svg version="1.1" id="Слой_1" xmlns="http://www.w3.org/2000/svg" x="0" y="0" viewBox="0 0 304 48" style="enable-background:new 0 0 304 48" xml:space="preserve"><path fill-rule="evenodd" clip-rule="evenodd" d="M114 46.9h21c11.4 0 17.9-5.1 17.9-14 0-8.5-5.8-13.1-16.5-13.1h-12.3v-9.1h25.6V2.5h-35.8l.1 44.4zm10.2-7.6V27.4h10.3c5.4 0 8.1 1.9 8.1 5.8 0 4-2.9 6.1-8.1 6.1h-10.3z"/><path fill-rule="evenodd" clip-rule="evenodd" id="_x31_" d="m165.1 2.5-.6 18c-.4 11.3-1.8 17.9-7 17.9-.6 0-1.2-.1-1.8-.3l-.6 8.7c1.9.4 3.5.7 5.1.7 10.4 0 12.9-10 13.4-27.4l.3-9.3h15.2v36h10.1V2.5h-34.1z"/><path fill-rule="evenodd" clip-rule="evenodd" id="_x32_" d="M231.5 47.7c13.9 0 24.3-9.7 24.3-22.9s-10.4-23-24.3-23c-14 0-24.3 9.8-24.3 22.9s10.3 23 24.3 23zm0-8.8c-7.9 0-13.9-5.8-13.9-14.2s5.9-14.2 13.9-14.2c7.9 0 13.9 5.8 13.9 14.2s-6 14.2-13.9 14.2z"/><path fill-rule="evenodd" clip-rule="evenodd" id="_x33_" d="M292.4 46.9H304L289.1 24l14.5-21.5h-10.9l-11.6 18h-7.4v-18h-10.2v44.4h10.2V29h7.1l11.6 17.9z"/><path fill-rule="evenodd" clip-rule="evenodd" fill="#eb0029" d="M55.7 17.7h12.2c0-2.4.1-4.5 1.9-6.2 3.1-3.1 11.1-2.2 11.1 3.7 0 6.6-26.1 28.8-26.8 31.6H88c.2-.4.5-.8.8-1.2l4.1-5.9c.3-.4 1.5-2.1 1.6-2.4H78c.2-.3.2-.4.5-.6 5.1-5.6 14.8-14 14.8-21.3 0-19.4-36-20.7-37.7.3 0 .5-.2 2 .1 2z"/><path fill-rule="evenodd" clip-rule="evenodd" d="M0 1.3v45.9h10.9V23.5l13.6 8.7V19.8L0 1.3z"/><path fill-rule="evenodd" clip-rule="evenodd" fill="#eb0029" d="m28.8 16.4 20-15.1v45.9H37.9V23.6l-9.1-7.2z"/></svg>