<svg xmlns="http://www.w3.org/2000/svg" viewBox="0 0 96 84" style="enable-background:new 0 0 96 84" xml:space="preserve"><path d="M89.7 55.9c-.4 0-.8 0-1.2.1-7 1.7-15 3.4-21.4 3.8h-1.2c-4.8 0-12.5-.8-13.9-1.5-1-.5-1.6-1.1-2-1.7h11c2.8 0 5.1-1.5 5.8-3.6H89c2.9 0 5.2-2.2 5.2-5V10.4c0-2.7-2.3-5-5.2-5H43.2c-2.9 0-5.2 2.2-5.2 5v31.9c-4.8.2-11.3 1.4-15.5 4.7-1.7 1.3-2.9 2.2-3.9 2.9-.6.5-1.2.9-1.7 1.3-2.1 1.6-3.9 3-14.2 3-1.2 0-2.2.9-2.2 2.1v20.2c0 .7.4 1.3.9 1.7.4.3.8.4 1.3.4.3 0 .5 0 .7-.1 8.8-3 10.4-3.4 14.2-4.5l.3-.1.9-.3c1.7-.5 3.1-.9 5.7-.9 2.8 0 6.7.5 12.1 1.5 10.7 2 15.8 2.9 20.2 2.9 2.6 0 4.9-.3 8-.7 6.3-.8 18.8-4.8 25.2-8 2-1 5.4-2.7 5.4-6.3V62c.1-2.9-2.3-6.1-5.7-6.1zM61 9.6h10.2v17.5H61V9.6zm-17.8 0h13.4v19.6c0 1.2 1 2.1 2.2 2.1h14.6c1.2 0 2.2-.9 2.2-2.1V9.6H89c.4 0 .8.3.8.8v37.7c0 .4-.4.8-.8.8H67c-.6-2.5-2.8-4.2-5.5-4.4-2.7-.2-6.9-.6-11-1.1-3-.3-5.8-.7-8.1-.9V10.4c0-.4.3-.8.8-.8zm47.9 52.6c0 .8-.7 1.4-3 2.6-5.9 2.9-17.9 6.7-23.7 7.5-2.9.4-5.1.7-7.3.7-3.8 0-8.2-.7-19.3-2.8-5.7-1.1-9.9-1.6-13-1.6-3.3 0-5.2.6-7 1.1-.3.1-.6.2-.9.2l-.5.1c-3.4.9-5.1 1.4-11.4 3.5V58.4c9.3-.2 11.9-1.7 14.8-3.9.5-.4 1-.8 1.6-1.2 1-.7 2.2-1.7 4-3 3.3-2.6 9.3-3.8 13.6-3.8h1.4c2.4.2 5.9.6 9.7 1 4.1.5 8.4 1 11.2 1.1.9.1 1.5.6 1.6 1.5v1.3c0 .7-1 1-1.7 1h-14c-1.2 0-2.2.9-2.2 2 0 .2-.2 5 5 7.6 2.9 1.4 12.6 2 16 2h1.4c6.7-.4 15-2.2 22.2-3.9h.1c.5 0 1.3 1 1.3 2v.1z" style="fill:#eb0029"/></svg>