<svg version="1.1" id="Слой_1" xmlns="http://www.w3.org/2000/svg" x="0" y="0" viewBox="0 0 96 84" style="enable-background:new 0 0 96 84" xml:space="preserve"><style>.st0{fill:#eb0029}</style><path class="st0" d="M86.6 15.5H86v-4.4C86 5 81.3 0 75.5 0S65 5 65 11.1v4.4h-.6c-1.1 0-1.9.9-1.9 2.1v2.7H10.6c-2 0-3.6 1.7-3.6 3.8V80c0 2.1 1.6 3.8 3.6 3.8h69.6c2 0 3.6-1.7 3.6-3.8V47.6h2.9c1.1 0 1.9-.9 1.9-2.1v-28c0-1.1-.9-2-2-2zm-17.7-4.4c0-3.9 3-7 6.7-7s6.7 3.2 6.7 7v4.4H68.9v-4.4zM35.2 24.3h20.4v37l-9.5-3.7c-.4-.2-.9-.2-1.3 0l-9.5 3.7v-37zm44.7 55.3h-69V24.3h20.4v39.9c0 .7.3 1.3.8 1.7.5.4 1.2.5 1.8.2l11.5-4.5 11.5 4.5c.2.1.4.1.7.1.4 0 .8-.1 1.1-.4.5-.4.8-1 .8-1.7V24.3h3v21.2c0 1.1.9 2.1 1.9 2.1h15.5v32zm4.8-36.1H66.3V19.6h18.4v23.9z"/><path class="st0" d="M73.6 33.8v3.7c0 1.1.9 2.1 1.9 2.1s1.9-.9 1.9-2.1v-3.7c1.8-.8 3-2.7 3-4.8 0-2.9-2.2-5.3-5-5.3s-5 2.4-5 5.3c.1 2.2 1.4 4 3.2 4.8zm1.9-6c.6 0 1.1.5 1.1 1.2s-.5 1.2-1.1 1.2-1.1-.5-1.1-1.2.5-1.2 1.1-1.2z"/></svg>