<svg xmlns="http://www.w3.org/2000/svg" viewBox="0 0 96 84" style="enable-background:new 0 0 96 84" xml:space="preserve"><path d="M76.2 38.7H54.8c-.2-3-1.4-5.4-3.5-7.2-.9-.8-1.9-1.4-3-1.8v-4.8c0-.4-.2-.9-.5-1.2L29.6 6.4c-.6-.6-1.4-.9-2.3-.9-.9 0-1.7.3-2.3.9l-9.3 8.8c-.6.6-.9 1.3-.9 2.1s.3 1.6.9 2.1L34 36.8c.3.3.8.5 1.2.5l11.4.1c1 0 1.8-.8 1.8-1.7v-2.1c.2.1.4.3.5.4 1.3 1.1 2.1 2.7 2.3 4.7H27.5c-2.7 0-5 2.1-5 4.7v30.4c0 2.6 2.2 4.7 5 4.7h48.7c2.7 0 5-2.1 5-4.7V43.4c0-2.6-2.2-4.7-5-4.7zM44.9 34l-8.9-.1-17.5-16.5L27.3 9l17.5 16.6v3.1c-2.3-.4-4-.2-4.2-.2-1 .1-1.7.9-1.6 1.9.1.9 1 1.6 2 1.5 0 0 1.8-.1 3.8.3l.1 1.8zm1 8.1h11.9v19.1H45.9V42.1zm31.7 31.7c0 .7-.6 1.3-1.4 1.3H27.5c-.8 0-1.4-.6-1.4-1.3V43.4c0-.7.6-1.3 1.4-1.3h14.8v20.8c0 .9.8 1.7 1.8 1.7h15.5c1 0 1.8-.8 1.8-1.7V42.1h14.8c.8 0 1.4.6 1.4 1.3v30.4z" style="fill:#eb0029"/></svg>