<svg version="1.1" id="Слой_1" xmlns="http://www.w3.org/2000/svg" xmlns:xlink="http://www.w3.org/1999/xlink" x="0" y="0" viewBox="0 0 96 84" style="enable-background:new 0 0 96 84" xml:space="preserve"><style>.st0{clip-path:url(#SVGID_00000025405659956390320240000004082849172080018357_)}</style><defs><path id="SVGID_1_" d="M8.5 4.5h79v75h-79z"/></defs><clipPath id="SVGID_00000168837833244905574800000000672471601722445495_"><use xlink:href="#SVGID_1_" style="overflow:visible"/></clipPath><g style="clip-path:url(#SVGID_00000168837833244905574800000000672471601722445495_)"><path d="m86 46.5-7-12.6c-.3-.6-1-.9-1.7-.9v-.3C77.3 17.2 64 4.6 47.7 4.6s-29.5 12.5-29.5 28v.4c-.5.1-.9.4-1.2.9l-7 12.6c-.2.4-.3.9-.1 1.4.2.5.5.8 1 1l6.1 2.7v12.7c0 .7.4 1.3 1.1 1.6l29.3 13.4c.3.1.5.2.8.2.3 0 .5-.1.8-.2l29.3-13.4c.6-.3 1.1-.9 1.1-1.6V51.5l5.9-2.7c.5-.2.8-.6 1-1 0-.4 0-.9-.3-1.3zm-38-3.3-11.1-3.9c-.2-1.6-.4-3.2-.4-4.9h22.6c-.1 1.9-.3 3.5-.5 5.1L48 43.2zM28 16.8c1.9 1.6 3.9 3 6.1 4-.7 3.1-1.2 6.5-1.3 10H22c.4-5.3 2.5-10.1 6-14zm45.6 14H62.8c-.1-3.5-.6-6.9-1.3-10 2.2-1.1 4.2-2.4 6.1-4 3.4 3.9 5.6 8.7 6 14zm-14.5 0H36.5c.1-3 .5-5.8 1-8.5 3.2 1.1 6.7 1.7 10.2 1.7 3.6 0 7-.6 10.2-1.7.7 2.7 1.1 5.6 1.2 8.5zm1.4-13.5c-.5-1.5-1.1-2.8-1.7-4.1-.7-1.4-1.5-2.7-2.3-3.8 3.2 1.1 6.1 2.7 8.5 4.8-1.4 1.3-2.9 2.3-4.5 3.1zm-5.1-2.6c.6 1.3 1.2 2.7 1.7 4.1-2.9 1.1-6.1 1.6-9.3 1.6-3.2 0-6.4-.6-9.3-1.6.5-1.5 1-2.9 1.7-4.1C42.3 10.5 45 8 47.8 8c2.7 0 5.5 2.5 7.6 6.7zm-18.6-1.5c-.6 1.3-1.2 2.7-1.7 4.1-1.6-.9-3.1-1.9-4.5-3.1 2.5-2.1 5.4-3.7 8.5-4.8-.9 1.2-1.6 2.4-2.3 3.8zm-4.1 21.2c0 1.2.1 2.3.2 3.5L23 34.4h9.7zm30.1 0H73l-10.4 3.7c0-1.2.1-2.4.2-3.7zm-43.3 2.5L45.4 46l-5.6 12-25.6-11.5 5.3-9.6zm1.1 26.3v-9.9L39.9 62c.3.1.5.2.8.2.2 0 .4 0 .6-.1.5-.2.8-.5 1.1-.9l3.8-7.9v21.8L20.6 63.2zm54.9 0L49.9 74.9V53.4l3.6 7.6c.2.4.6.8 1.1.9.2.1.4.1.6.1.3 0 .5-.1.8-.2l19.4-8.7.1 10.1zM56.2 58l-5.7-11.9L76.4 37l5.3 9.6L56.2 58z" style="fill:#eb0029"/></g></svg>