<svg width="34" height="34" fill="none" xmlns="http://www.w3.org/2000/svg"><g clip-path="url(#a)" fill="#EB0029"><path d="M13.227 23.074H5.118c-.347 0-.579.232-.579.58v6.95c0 .347.232.579.58.579h8.108c.348 0 .58-.232.58-.58v-6.95c0-.347-.232-.579-.58-.579Zm-.58 6.95h-6.95v-5.791h6.95v5.792Z"/><path d="M7.437 26.549h3.475c.347 0 .579-.232.579-.58 0-.347-.232-.578-.58-.578H7.438c-.348 0-.58.231-.58.579 0 .347.232.579.58.579Z"/><path d="M7.437 28.865h2.316c.348 0 .58-.231.58-.579 0-.347-.232-.579-.58-.579H7.437c-.348 0-.58.232-.58.58 0 .347.232.578.58.578Z"/><path d="m33.384 1.296-.232-.231c-.753-.753-2.027-.753-2.838 0l-4.696 4.633h-7.177V5.12c0-.347-.232-.579-.58-.579H12.07c-.347 0-.579.232-.579.58v.578H3.903c-1.564 0-2.839 1.275-2.839 2.896v22.01c0 1.622 1.275 2.896 2.839 2.896H25.97a2.868 2.868 0 0 0 2.896-2.896V9.088l2.742-2.76a.586.586 0 0 0 .272-.274l1.504-1.514c.869-.927.869-2.375 0-3.244ZM27.88 8.478l-3.764 3.765-2.433.695.81-2.49 3.824-3.765a.696.696 0 0 0 .049-.055l2.513-2.48 1.666 1.666-2.665 2.664ZM12.65 5.698h4.633v6.314l-1.97-1.564c-.173-.174-.462-.174-.694 0l-1.97 1.564V5.698Zm15.059 4.576v20.33c0 .985-.753 1.738-1.738 1.738H3.903c-.927 0-1.68-.753-1.68-1.738V8.594c0-.984.753-1.737 1.68-1.737h7.587v5.27c0 .406.232.811.637.985.348.174.811.174 1.159-.116l1.68-1.332 1.679 1.332c.232.174.463.232.695.232.174 0 .348 0 .463-.116a1.07 1.07 0 0 0 .637-.985v-5.27h6.004l-2.876 2.838a.44.44 0 0 0-.116.232l-1.216 3.706c-.058.174-.058.406.116.58a.806.806 0 0 0 .05.046.54.54 0 0 0 .53.127l3.648-1.042c.058-.058.174-.116.232-.174l2.896-2.896Zm4.923-6.545-1.274 1.274-1.66-1.66 1.428-1.41a.84.84 0 0 1 1.216 0l.29.232c.463.406.463 1.1 0 1.564Z"/></g><defs><clipPath id="a"><path fill="#fff" transform="translate(1 .5)" d="M0 0h33v33H0z"/></clipPath></defs></svg>